<?xml version="1.0" encoding="UTF-8"?>
<!DOCTYPE svg PUBLIC "-//W3C//DTD SVG 1.1//EN" "http://www.w3.org/Graphics/SVG/1.1/DTD/svg11.dtd">
<!-- Creator: CorelDRAW X7 -->
<svg xmlns="http://www.w3.org/2000/svg" xml:space="preserve" width="10.672in" height="8.42841in" version="1.1" style="shape-rendering:geometricPrecision; text-rendering:geometricPrecision; image-rendering:optimizeQuality; fill-rule:evenodd; clip-rule:evenodd"
viewBox="0 0 1897 1499"
 xmlns:xlink="http://www.w3.org/1999/xlink">
 <defs>
  <style type="text/css">
   <![CDATA[
    .fil0 {fill:#48bb21}
   ]]>
  </style>
 </defs>
 <g id="Layer_x0020_1">
  <metadata id="CorelCorpID_0Corel-Layer"/>
  <path class="fil0" d="M607 1498c-28,-4 -73,-133 -77,-156 -3,-15 -4,-31 -6,-45 -15,-76 -1,-250 33,-317l25 -56c18,-36 51,-78 72,-104 27,-35 21,-23 -5,-54 -53,-64 -27,-124 -69,-90 -169,180 -275,199 -494,199 -58,-9 -83,-21 -86,-40 -3,-27 31,-19 54,-20 65,-5 88,-17 181,-55 99,-42 167,-122 231,-203 63,-83 79,-157 184,-249 278,-242 498,-49 767,24 67,19 170,17 103,-42 -22,-19 -17,-11 -44,-19 -29,-9 -70,-19 -95,-34 -49,-31 -77,-87 -82,-147 -5,-57 64,-20 76,-15 21,8 80,36 97,37 7,-127 -2,-147 98,-55 26,24 46,44 70,71 24,26 76,88 90,121 7,14 15,34 21,46 12,25 17,10 37,35 18,23 32,78 82,130 27,28 42,59 8,93 -12,11 -27,25 -52,20 -25,-5 -60,-41 -178,-32 -129,9 -184,124 -227,230 -5,11 -5,13 -10,23 -23,47 -49,83 -95,112 -68,41 -137,51 -207,13 -44,-23 17,-29 53,-51 118,-73 -38,-29 -75,-88 -20,-31 16,-68 22,-94 8,-36 5,-80 2,-114 -5,-53 -60,-137 -100,-144 8,13 13,15 25,29 9,11 11,16 19,29 14,24 22,41 29,66 13,47 0,137 -21,169 -17,26 -21,36 -42,59 -44,45 -96,65 -163,131 -139,135 -233,282 -238,477 -1,30 22,115 -13,110z"/>
 </g>
</svg>
